<svg width="833.962109375px" height="156.79999999999998px" xmlns="http://www.w3.org/2000/svg" viewBox="-166.98105468749998 -3.3999999999999915 833.962109375 156.79999999999998" style="background: none;" preserveAspectRatio="xMidYMid"><defs><filter id="editing-extrusion" x="-100%" y="-100%" width="300%" height="300%"><feFlood result="color1" flood-color="#f29c98"></feFlood><feConvolveMatrix order="5,5" divisor="1" kernelMatrix="1 0 0 0 0 0 1 0 0 0 0 0 1 0 0 0 0 0 1 0 0 0 0 0 1" in="SourceAlpha" result="extrude"></feConvolveMatrix><feComposite in="color1" in2="extrude" result="comp-extrude" operator="in"></feComposite><feOffset dx="2.5" dy="2.5" in="comp-extrude" result="offset-extrude"></feOffset><feMerge><feMergeNode in="offset-extrude"></feMergeNode><feMergeNode in="SourceGraphic"></feMergeNode></feMerge></filter></defs><g filter="url(#editing-extrusion)"><g transform="translate(-50.29914116859436, 114.03499984741211)"><path d="M11.68 0L11.68-6.26L23.29-6.26L23.29-49.33L11.21-49.33L11.21-36.69L3.66-36.69L3.66-46.22L3.66-46.22Q3.66-48.16 4.21-49.86L4.21-49.86L4.21-49.86Q4.76-51.56 5.71-52.83L5.71-52.83L5.71-52.83Q6.67-54.09 7.93-54.80L7.93-54.80L7.93-54.80Q9.19-55.52 10.66-55.52L10.66-55.52L32.01-55.52L32.01-9.23L32.01-9.23Q32.01-7.32 31.46-5.64L31.46-5.64L31.46-5.64Q30.91-3.96 29.96-2.71L29.96-2.71L29.96-2.71Q29.00-1.46 27.74-0.73L27.74-0.73L27.74-0.73Q26.48 0 25.05 0L25.05 0L11.68 0ZM48.41 0L48.41-38.34L57.17-38.34L57.17-23.62L66.06-35.56L66.06-35.56Q67.24-36.95 68.50-37.66L68.50-37.66L68.50-37.66Q69.76-38.38 71.59-38.38L71.59-38.38L71.59-38.38Q73.06-38.38 74.40-37.65L74.40-37.65L74.40-37.65Q75.73-36.91 76.74-35.65L76.74-35.65L76.74-35.65Q77.75-34.39 78.35-32.70L78.35-32.70L78.35-32.70Q78.96-31.02 78.96-29.08L78.96-29.08L78.96-24.94L86.65-35.56L86.65-35.56Q87.82-36.91 89.28-37.65L89.28-37.65L89.28-37.65Q90.75-38.38 92.54-38.38L92.54-38.38L92.54-38.38Q94.01-38.38 95.34-37.65L95.34-37.65L95.34-37.65Q96.68-36.91 97.69-35.65L97.69-35.65L97.69-35.65Q98.69-34.39 99.30-32.70L99.30-32.70L99.30-32.70Q99.90-31.02 99.90-29.08L99.90-29.08L99.90-6.26L106.42-6.26L106.42-6.26Q106.27-4.98 105.71-3.83L105.71-3.83L105.71-3.83Q105.14-2.67 104.28-1.83L104.28-1.83L104.28-1.83Q103.42-0.99 102.32-0.49L102.32-0.49L102.32-0.49Q101.22 0 100.01 0L100.01 0L98.03 0L98.03 0Q96.61 0 95.34-0.73L95.34-0.73L95.34-0.73Q94.08-1.46 93.16-2.73L93.16-2.73L93.16-2.73Q92.25-3.99 91.72-5.68L91.72-5.68L91.72-5.68Q91.19-7.36 91.19-9.30L91.19-9.30L91.19-31.31L78.96-16.48L78.96 0L70.20 0L70.20-31.31L57.17-15.20L57.17 0L48.41 0ZM113.93-9.19L113.93-28.02L113.93-28.02Q113.93-30.21 114.53-32.12L114.53-32.12L114.53-32.12Q115.14-34.02 116.20-35.41L116.20-35.41L116.20-35.41Q117.26-36.80 118.71-37.59L118.71-37.59L118.71-37.59Q120.15-38.38 121.84-38.38L121.84-38.38L146.52-38.38L146.52-6.26L154.47-6.26L154.47-6.26Q154.32-4.98 153.75-3.83L153.75-3.83L153.75-3.83Q153.19-2.67 152.33-1.83L152.33-1.83L152.33-1.83Q151.46-0.99 150.37-0.49L150.37-0.49L150.37-0.49Q149.27 0 148.06 0L148.06 0L144.14 0L144.14 0Q142.35 0 140.73-1.23L140.73-1.23L140.73-1.23Q139.12-2.45 138.06-4.54L138.06-4.54L138.06-4.54Q137.00-2.45 135.39-1.23L135.39-1.23L135.39-1.23Q133.78 0 131.98 0L131.98 0L120.89 0L120.89 0Q119.46 0 118.18-0.73L118.18-0.73L118.18-0.73Q116.89-1.46 115.96-2.71L115.96-2.71L115.96-2.71Q115.03-3.96 114.48-5.62L114.48-5.62L114.48-5.62Q113.93-7.29 113.93-9.19L113.93-9.19ZM122.64-6.26L137.81-6.26L137.81-32.08L122.64-32.08L122.64-6.26ZM160.84-9.30L160.84-29.04L160.84-29.04Q160.84-30.98 161.39-32.67L161.39-32.67L161.39-32.67Q161.94-34.35 162.87-35.61L162.87-35.61L162.87-35.61Q163.81-36.88 165.09-37.61L165.09-37.61L165.09-37.61Q166.37-38.34 167.80-38.34L167.80-38.34L193.43-38.34L193.43-6.26L201.16-6.26L201.16-6.26Q201.01-4.98 200.45-3.83L200.45-3.83L200.45-3.83Q199.88-2.67 199.02-1.83L199.02-1.83L199.02-1.83Q198.16-0.99 197.06-0.49L197.06-0.49L197.06-0.49Q195.96 0 194.75 0L194.75 0L193.43 0L193.43 10.44L193.43 10.44Q193.43 12.38 192.88 14.08L192.88 14.08L192.88 14.08Q192.33 15.78 191.38 17.05L191.38 17.05L191.38 17.05Q190.43 18.31 189.18 19.06L189.18 19.06L189.18 19.06Q187.94 19.81 186.51 19.81L186.51 19.81L168.75 19.81L168.75 13.48L184.68 13.48L184.68-4.06L184.68-4.06Q183.62-2.16 182.08-1.08L182.08-1.08L182.08-1.08Q180.54 0 178.86 0L178.86 0L167.80 0L167.80 0Q166.37 0 165.09-0.73L165.09-0.73L165.09-0.73Q163.81-1.46 162.87-2.73L162.87-2.73L162.87-2.73Q161.94-3.99 161.39-5.68L161.39-5.68L161.39-5.68Q160.84-7.36 160.84-9.30L160.84-9.30ZM169.56-6.26L184.68-6.26L184.68-32.08L169.56-32.08L169.56-6.26ZM207.53-9.30L207.53-29.04L207.53-29.04Q207.53-30.98 208.08-32.67L208.08-32.67L208.08-32.67Q208.63-34.35 209.56-35.61L209.56-35.61L209.56-35.61Q210.50-36.88 211.78-37.61L211.78-37.61L211.78-37.61Q213.06-38.34 214.49-38.34L214.49-38.34L233.94-38.34L233.94-38.34Q235.36-38.34 236.63-37.61L236.63-37.61L236.63-37.61Q237.89-36.88 238.84-35.61L238.84-35.61L238.84-35.61Q239.79-34.35 240.34-32.67L240.34-32.67L240.34-32.67Q240.89-30.98 240.89-29.04L240.89-29.04L240.89-16.85L216.28-16.85L216.28-6.26L243.16-6.26L243.16-6.26Q243.02-4.98 242.45-3.83L242.45-3.83L242.45-3.83Q241.88-2.67 241.02-1.83L241.02-1.83L241.02-1.83Q240.16-0.99 239.06-0.49L239.06-0.49L239.06-0.49Q237.96 0 236.76 0L236.76 0L214.49 0L214.49 0Q213.06 0 211.78-0.73L211.78-0.73L211.78-0.73Q210.50-1.46 209.56-2.73L209.56-2.73L209.56-2.73Q208.63-3.99 208.08-5.68L208.08-5.68L208.08-5.68Q207.53-7.36 207.53-9.30L207.53-9.30ZM216.28-21.97L232.14-21.97L232.14-32.08L216.28-32.08L216.28-21.97ZM250.09 0L265.47-40.54L274.26-40.54L274.26-40.54Q273.93-39.73 273.76-38.95L273.76-38.95L273.76-38.95Q273.60-38.16 273.52-37.65L273.52-37.65L273.52-37.65Q273.41-36.29 273.96-35.19L273.96-35.19L273.96-35.19Q274.51-34.09 275.45-33.09L275.45-33.09L275.45-33.09Q276.38-32.08 277.61-31.09L277.61-31.09L277.61-31.09Q278.83-30.10 280.11-29.00L280.11-29.00L280.11-29.00Q281.58-27.83 283.08-26.31L283.08-26.31L283.08-26.31Q284.58-24.79 285.79-22.98L285.79-22.98L285.79-22.98Q287.00-21.17 287.75-19.13L287.75-19.13L287.75-19.13Q288.50-17.10 288.43-14.90L288.43-14.90L288.43-14.90Q288.35-13.37 287.77-11.96L287.77-11.96L287.77-11.96Q287.18-10.55 286.23-9.43L286.23-9.43L286.23-9.43Q285.28-8.31 284.01-7.51L284.01-7.51L284.01-7.51Q282.75-6.70 281.36-6.34L281.36-6.34L294.98-6.34L294.98-6.34Q294.47-4.91 293.76-3.75L293.76-3.75L293.76-3.75Q293.04-2.60 292.14-1.76L292.14-1.76L292.14-1.76Q291.25-0.92 290.19-0.46L290.19-0.46L290.19-0.46Q289.12 0 287.99 0L287.99 0L277.95 0L277.95 0Q276.27 0 275.15-0.53L275.15-0.53L275.15-0.53Q274.04-1.06 273.39-1.94L273.39-1.94L273.39-1.94Q272.75-2.82 272.52-3.97L272.52-3.97L272.52-3.97Q272.28-5.13 272.39-6.37L272.39-6.37L272.39-6.37Q273.56-6.52 274.69-6.99L274.69-6.99L274.69-6.99Q275.83-7.47 276.73-8.37L276.73-8.37L276.73-8.37Q277.62-9.27 278.23-10.62L278.23-10.62L278.23-10.62Q278.83-11.98 278.98-13.88L278.98-13.88L278.98-13.88Q279.13-15.38 278.69-16.70L278.69-16.70L278.69-16.70Q278.25-18.02 277.51-19.19L277.51-19.19L277.51-19.19Q276.78-20.36 275.83-21.42L275.83-21.42L275.83-21.42Q274.88-22.49 273.96-23.47L273.96-23.47L273.96-23.47Q273.01-24.72 272.06-26.48L272.06-26.48L272.06-26.48Q271.11-28.23 270.70-30.76L270.70-30.76L259.13 0L250.09 0ZM325.16-9.23L325.16-46.18L325.16-46.18Q325.16-48.12 325.71-49.82L325.71-49.82L325.71-49.82Q326.26-51.53 327.19-52.79L327.19-52.79L327.19-52.79Q328.13-54.05 329.37-54.77L329.37-54.77L329.37-54.77Q330.62-55.48 332.04-55.48L332.04-55.48L361.34-55.48L361.34-49.29L333.91-49.29L333.91-6.30L352.73-6.30L352.73-32.34L361.41-32.34L361.34 4.28L361.34 4.28Q361.34 6.15 360.81 7.82L360.81 7.82L360.81 7.82Q360.28 9.48 359.36 10.75L359.36 10.75L359.36 10.75Q358.45 12.01 357.20 12.74L357.20 12.74L357.20 12.74Q355.96 13.48 354.57 13.48L354.57 13.48L352.73 13.48L352.73 0L332.04 0L332.04 0Q330.62 0 329.37-0.73L329.37-0.73L329.37-0.73Q328.13-1.46 327.19-2.71L327.19-2.71L327.19-2.71Q326.26-3.96 325.71-5.64L325.71-5.64L325.71-5.64Q325.16-7.32 325.16-9.23L325.16-9.23ZM374.23-9.19L374.23-28.02L374.23-28.02Q374.23-30.21 374.84-32.12L374.84-32.12L374.84-32.12Q375.44-34.02 376.50-35.41L376.50-35.41L376.50-35.41Q377.56-36.80 379.01-37.59L379.01-37.59L379.01-37.59Q380.46-38.38 382.14-38.38L382.14-38.38L406.82-38.38L406.82-6.26L414.77-6.26L414.77-6.26Q414.62-4.98 414.06-3.83L414.06-3.83L414.06-3.83Q413.49-2.67 412.63-1.83L412.63-1.83L412.63-1.83Q411.77-0.99 410.67-0.49L410.67-0.49L410.67-0.49Q409.57 0 408.36 0L408.36 0L404.44 0L404.44 0Q402.65 0 401.04-1.23L401.04-1.23L401.04-1.23Q399.43-2.45 398.36-4.54L398.36-4.54L398.36-4.54Q397.30-2.45 395.69-1.23L395.69-1.23L395.69-1.23Q394.08 0 392.29 0L392.29 0L381.19 0L381.19 0Q379.76 0 378.48-0.73L378.48-0.73L378.48-0.73Q377.20-1.46 376.26-2.71L376.26-2.71L376.26-2.71Q375.33-3.96 374.78-5.62L374.78-5.62L374.78-5.62Q374.23-7.29 374.23-9.19L374.23-9.19ZM382.95-6.26L398.11-6.26L398.11-32.08L382.95-32.08L382.95-6.26ZM420.41-9.30L420.41-58.26L429.16-58.26L429.16-6.26L436.96-6.26L436.96-6.26Q436.74-4.80 436.14-3.63L436.14-3.63L436.14-3.63Q435.53-2.45 434.67-1.65L434.67-1.65L434.67-1.65Q433.81-0.84 432.73-0.42L432.73-0.42L432.73-0.42Q431.65 0 430.48 0L430.48 0L427.40 0L427.40 0Q425.98 0 424.69-0.73L424.69-0.73L424.69-0.73Q423.41-1.46 422.46-2.73L422.46-2.73L422.46-2.73Q421.51-3.99 420.96-5.68L420.96-5.68L420.96-5.68Q420.41-7.36 420.41-9.30L420.41-9.30ZM442.09-9.30L442.09-58.26L450.84-58.26L450.84-6.26L458.64-6.26L458.64-6.26Q458.42-4.80 457.82-3.63L457.82-3.63L457.82-3.63Q457.21-2.45 456.35-1.65L456.35-1.65L456.35-1.65Q455.49-0.84 454.41-0.42L454.41-0.42L454.41-0.42Q453.33 0 452.16 0L452.16 0L449.08 0L449.08 0Q447.66 0 446.37-0.73L446.37-0.73L446.37-0.73Q445.09-1.46 444.14-2.73L444.14-2.73L444.14-2.73Q443.19-3.99 442.64-5.68L442.64-5.68L442.64-5.68Q442.09-7.36 442.09-9.30L442.09-9.30ZM464.50-9.30L464.50-29.04L464.50-29.04Q464.50-30.98 465.05-32.67L465.05-32.67L465.05-32.67Q465.60-34.35 466.53-35.61L466.53-35.61L466.53-35.61Q467.47-36.88 468.75-37.61L468.75-37.61L468.75-37.61Q470.03-38.34 471.46-38.34L471.46-38.34L490.91-38.34L490.91-38.34Q492.33-38.34 493.60-37.61L493.60-37.61L493.60-37.61Q494.86-36.88 495.81-35.61L495.81-35.61L495.81-35.61Q496.77-34.35 497.31-32.67L497.31-32.67L497.31-32.67Q497.86-30.98 497.86-29.04L497.86-29.04L497.86-16.85L473.25-16.85L473.25-6.26L500.13-6.26L500.13-6.26Q499.99-4.98 499.42-3.83L499.42-3.83L499.42-3.83Q498.85-2.67 497.99-1.83L497.99-1.83L497.99-1.83Q497.13-0.99 496.03-0.49L496.03-0.49L496.03-0.49Q494.93 0 493.73 0L493.73 0L471.46 0L471.46 0Q470.03 0 468.75-0.73L468.75-0.73L468.75-0.73Q467.47-1.46 466.53-2.73L466.53-2.73L466.53-2.73Q465.60-3.99 465.05-5.68L465.05-5.68L465.05-5.68Q464.50-7.36 464.50-9.30L464.50-9.30ZM473.25-21.97L489.11-21.97L489.11-32.08L473.25-32.08L473.25-21.97ZM511.19 0L511.19-42.37L519.98-42.37L519.98-38.34L547.60-38.34L547.60-38.34Q547.45-37.06 546.88-35.91L546.88-35.91L546.88-35.91Q546.31-34.75 545.47-33.91L545.47-33.91L545.47-33.91Q544.63-33.07 543.55-32.57L543.55-32.57L543.55-32.57Q542.47-32.08 541.33-32.08L541.33-32.08L541.33-6.26L549.83-6.26L549.83-6.26Q549.68-4.98 549.11-3.83L549.11-3.83L549.11-3.83Q548.55-2.67 547.67-1.83L547.67-1.83L547.67-1.83Q546.79-0.99 545.65-0.49L545.65-0.49L545.65-0.49Q544.52 0 543.24 0L543.24 0L539.58 0L539.58 0Q538.15 0 536.87-0.73L536.87-0.73L536.87-0.73Q535.58-1.46 534.63-2.73L534.63-2.73L534.63-2.73Q533.68-3.99 533.13-5.68L533.13-5.68L533.13-5.68Q532.58-7.36 532.58-9.30L532.58-9.30L532.58-32.08L519.91-32.08L519.91 0L511.19 0ZM557.89-9.30L557.89-38.34L566.64-38.34L566.64-6.26L581.73-6.26L581.73-38.34L590.48-38.34L590.48-6.26L597.88-6.26L597.88-6.26Q597.73-4.98 597.16-3.83L597.16-3.83L597.16-3.83Q596.59-2.67 595.73-1.83L595.73-1.83L595.73-1.83Q594.87-0.99 593.77-0.49L593.77-0.49L593.77-0.49Q592.68 0 591.47 0L591.47 0L590.48 0L590.48 10.44L590.48 10.44Q590.48 12.38 589.93 14.08L589.93 14.08L589.93 14.08Q589.38 15.78 588.43 17.05L588.43 17.05L588.43 17.05Q587.48 18.31 586.21 19.06L586.21 19.06L586.21 19.06Q584.95 19.81 583.52 19.81L583.52 19.81L565.80 19.81L565.80 13.48L581.73 13.48L581.73-3.92L581.73-3.92Q580.74-2.09 579.18-1.04L579.18-1.04L579.18-1.04Q577.62 0 575.87 0L575.87 0L564.84 0L564.84 0Q563.42 0 562.13-0.73L562.13-0.73L562.13-0.73Q560.85-1.46 559.92-2.73L559.92-2.73L559.92-2.73Q558.98-3.99 558.44-5.68L558.44-5.68L558.44-5.68Q557.89-7.36 557.89-9.30L557.89-9.30Z" fill="#009dd3"></path></g></g><style>text {
  font-size: 64px;
  font-family: Arial Black;
  dominant-baseline: central;
  text-anchor: middle;
}</style></svg>